<svg id="vuesax_bold_like" data-name="vuesax/bold/like" xmlns="http://www.w3.org/2000/svg" width="16.098" height="16.098" viewBox="0 0 16.098 16.098">
  <g id="like">
    <path id="Vector" d="M9.127,2.166V8.981a1.356,1.356,0,0,1-.228.751L7.068,12.456a1.433,1.433,0,0,1-2.569-1.1l.349-2.193a.673.673,0,0,0-.141-.523.624.624,0,0,0-.463-.208H1.487a1.5,1.5,0,0,1-1.254-.59A1.413,1.413,0,0,1,.1,6.533l1.65-5.024A2.155,2.155,0,0,1,3.761,0H6.377A2.187,2.187,0,0,1,7.745.443l.859.664A1.331,1.331,0,0,1,9.127,2.166Z" transform="translate(1.343 1.529)" fill="#fff"/>
    <path id="Vector-2" data-name="Vector" d="M1.462,9.538h.691c1.04,0,1.462-.4,1.462-1.4V1.4C3.615.4,3.193,0,2.153,0H1.462C.423,0,0,.4,0,1.4V8.143C0,9.135.423,9.538,1.462,9.538Z" transform="translate(11.141 2.28)" fill="#fff"/>
    <path id="Vector-3" data-name="Vector" d="M0,0H16.1V16.1H0Z" transform="translate(0 0)" fill="none" opacity="0"/>
  </g>
</svg>
