<svg id="call-calling" xmlns="http://www.w3.org/2000/svg" width="16.097" height="16.097" viewBox="0 0 16.097 16.097">
  <g id="call-calling-2" data-name="call-calling" transform="translate(1.341 1.341)">
    <path id="Vector" d="M13.394,10.952a1.707,1.707,0,0,1-.168.731,2.767,2.767,0,0,1-.456.684,3.024,3.024,0,0,1-1.1.791,3.368,3.368,0,0,1-1.308.255,5.589,5.589,0,0,1-2.186-.49A11.78,11.78,0,0,1,5.869,11.6a19.283,19.283,0,0,1-2.2-1.878A19.057,19.057,0,0,1,1.8,7.525,11.957,11.957,0,0,1,.483,5.238,5.649,5.649,0,0,1,0,3.045,3.47,3.47,0,0,1,.241,1.751,3.087,3.087,0,0,1,1.013.63,1.965,1.965,0,0,1,2.408,0a1.26,1.26,0,0,1,.543.121A1.093,1.093,0,0,1,3.4.5L4.956,2.689a2.3,2.3,0,0,1,.268.469,1.06,1.06,0,0,1,.094.409.91.91,0,0,1-.141.476A2.281,2.281,0,0,1,4.8,4.52l-.51.53a.359.359,0,0,0-.107.268.609.609,0,0,0,.02.154c.02.054.04.094.054.134a5.566,5.566,0,0,0,.624.858c.3.349.624.7.973,1.06s.711.684,1.066.986a5.147,5.147,0,0,0,.865.617c.034.013.074.034.121.054a.463.463,0,0,0,.168.027.369.369,0,0,0,.275-.114l.51-.5a2.058,2.058,0,0,1,.483-.376.893.893,0,0,1,.476-.141,1.07,1.07,0,0,1,.409.087,2.594,2.594,0,0,1,.469.262L12.918,10a1.017,1.017,0,0,1,.369.429A1.376,1.376,0,0,1,13.394,10.952Z" fill="none" stroke="#2a3941" stroke-width="1"/>
    <path id="Vector-2" data-name="Vector" d="M2.347,2.347A2.659,2.659,0,0,0,1.563.825,2.291,2.291,0,0,0,0,0" transform="translate(8.719 2.347)" fill="none" stroke="#2a3941" stroke-linecap="round" stroke-linejoin="round" stroke-width="1"/>
    <path id="Vector-3" data-name="Vector" d="M4.695,4.695A4.691,4.691,0,0,0,0,0" transform="translate(8.719)" fill="none" stroke="#2a3941" stroke-linecap="round" stroke-linejoin="round" stroke-width="1"/>
  </g>
  <path id="Vector-4" data-name="Vector" d="M0,0H16.1V16.1H0Z" fill="none" opacity="0"/>
</svg>
