<svg xmlns="http://www.w3.org/2000/svg" width="15.07" height="15.07" viewBox="0 0 15.07 15.07">
  <path id="import" d="M16.317,11.042a.754.754,0,0,0-.754.754V14.81a.754.754,0,0,1-.754.754H4.261a.754.754,0,0,1-.754-.754V11.8A.754.754,0,1,0,2,11.8V14.81A2.261,2.261,0,0,0,4.261,17.07H14.81A2.261,2.261,0,0,0,17.07,14.81V11.8A.754.754,0,0,0,16.317,11.042ZM9,12.331a.753.753,0,0,0,.249.158.708.708,0,0,0,.573,0,.754.754,0,0,0,.249-.158l3.014-3.014a.757.757,0,0,0-1.07-1.07L10.289,9.98V2.754a.754.754,0,0,0-1.507,0V9.98L7.056,8.247a.757.757,0,0,0-1.07,1.07Z" transform="translate(-2 -2)" fill="#2a3941"/>
</svg>
