<svg xmlns="http://www.w3.org/2000/svg" width="19.636" height="40.538" viewBox="0 0 19.636 40.538">
  <g id="Group_16174" data-name="Group 16174" transform="translate(0 0)">
    <g id="Group_16171" data-name="Group 16171" transform="translate(4.739 15.886)">
      <path id="Path_12960" data-name="Path 12960" d="M209.464,220.966a1.067,1.067,0,0,1-.527-1.995,3.951,3.951,0,0,0,1.909-2.995,1.067,1.067,0,0,1,1.067-1.067h3.126a1.067,1.067,0,0,1,1.067,1.067,3.949,3.949,0,0,0,1.909,2.995,1.067,1.067,0,0,1-.527,1.995Z" transform="translate(-208.396 -214.91)"/>
      <path id="Path_12961" data-name="Path 12961" d="M226.422,228.833H218.4a4.986,4.986,0,0,0,2.448-3.923h3.126A4.986,4.986,0,0,0,226.422,228.833Z" transform="translate(-217.332 -223.843)" fill="#ffb000"/>
      <rect id="Rectangle_2720" data-name="Rectangle 2720" width="12.708" height="10.156" rx="1" transform="translate(10.156 3.923) rotate(90)"/>
      <path id="Path_12962" data-name="Path 12962" d="M218.4,261.68h8.022v10.574H218.4Z" transform="translate(-217.332 -256.691)" fill="#ffce00"/>
    </g>
    <g id="Group_16172" data-name="Group 16172" transform="translate(0 30.383)">
      <path id="Path_12963" data-name="Path 12963" d="M2.525,0H5.078A1.067,1.067,0,0,1,6.145,1.067V12.735A1.067,1.067,0,0,1,5.078,13.8H2.525A2.527,2.527,0,0,1,0,11.277V2.526A2.527,2.527,0,0,1,2.525,0Z" transform="translate(16.718 0) rotate(90)"/>
      <path id="Path_12964" data-name="Path 12964" d="M202.759,360.8h8.751a1.459,1.459,0,0,1,1.458,1.458v2.553H201.3v-2.553a1.459,1.459,0,0,1,1.458-1.458Z" transform="translate(-197.318 -359.733)" fill="#4d7382"/>
      <path id="Path_12965" data-name="Path 12965" d="M167.042,394.545a3.072,3.072,0,0,1,0-6.145h13.491a3.072,3.072,0,1,1,0,6.145Z" transform="translate(-163.97 -384.389)"/>
      <rect id="Rectangle_2721" data-name="Rectangle 2721" width="17.502" height="4.011" rx="2.006" transform="translate(1.067 5.078)" fill="#2a3941"/>
    </g>
    <g id="Group_16173" data-name="Group 16173" transform="translate(0.039)">
      <path id="Path_12966" data-name="Path 12966" d="M178.238,84.906a3.08,3.08,0,0,1-1.382-.328l-2.74-1.357-2.738,1.357a3.085,3.085,0,0,1-1.383.328,3.118,3.118,0,0,1-2.36-1.087,3.06,3.06,0,0,1-.717-2.479l.444-3.024-2.137-2.186a3.111,3.111,0,0,1,1.7-5.242l3.014-.512,1.419-2.708a3.111,3.111,0,0,1,5.511,0l1.419,2.708,3.014.512a3.111,3.111,0,0,1,1.7,5.242l-2.137,2.186.444,3.024a3.056,3.056,0,0,1-.717,2.479,3.12,3.12,0,0,1-2.36,1.087Z" transform="translate(-164.339 -66)"/>
      <path id="Path_12967" data-name="Path 12967" d="M184.861,77.1l1.663,3.176,3.534.6a2.044,2.044,0,0,1,1.119,3.445l-2.506,2.564.521,3.547a2.044,2.044,0,0,1-2.929,2.128l-3.212-1.592-3.212,1.592a2.044,2.044,0,0,1-2.929-2.128l.521-3.547-2.506-2.564a2.044,2.044,0,0,1,1.119-3.445l3.534-.6,1.663-3.176a2.045,2.045,0,0,1,3.622,0Z" transform="translate(-173.273 -74.935)" fill="#ffce00"/>
    </g>
  </g>
</svg>
