<svg xmlns="http://www.w3.org/2000/svg" width="56.5" height="56.5" viewBox="0 0 56.5 56.5">
  <g id="Refresh_Lock_1" data-name="Refresh Lock 1" transform="translate(-1017 -346)">
    <circle id="Ellipse_456" data-name="Ellipse 456" cx="28.25" cy="28.25" r="28.25" transform="translate(1017 346)" fill="#338AF0"/>
    <g id="Group_12042" data-name="Group 12042" transform="translate(1027.077 357.212)">
      <path id="Path_10933" data-name="Path 10933" d="M156.494,118.81h-1.136v-2.272a4.544,4.544,0,1,0-9.087,0v2.272h-1.136A1.136,1.136,0,0,0,144,119.946v9.087a1.136,1.136,0,0,0,1.136,1.136h11.358a1.136,1.136,0,0,0,1.136-1.136v-9.087a1.136,1.136,0,0,0-1.136-1.136Zm-3.407,0h-4.543v-2.272a2.272,2.272,0,0,1,4.544,0Z" transform="translate(-133.777 -105.18)" fill="#fdfdfd"/>
      <path id="Path_10934" data-name="Path 10934" d="M35.633,26.3a1.135,1.135,0,0,0-1.474.634l-.679,1.7a17.015,17.015,0,1,0-4.393,16.449,1.136,1.136,0,0,0-1.606-1.606,14.77,14.77,0,1,1,4-13.51L29.2,27.685a1.136,1.136,0,0,0-1.606,1.606l4.543,4.543a1.132,1.132,0,0,0,1.854-.379l2.272-5.679A1.136,1.136,0,0,0,35.633,26.3Z" transform="translate(0 -15.995)" fill="#fdfdfd"/>
      <g id="Group_12044" data-name="Group 12044" transform="translate(27.436 19.266)">
        <path id="Path_10946" data-name="Path 10946" d="M22.354,16.86H21.006a.506.506,0,0,1,0-1.011h.843v-.843a.506.506,0,1,1,1.011,0v1.348A.506.506,0,0,1,22.354,16.86Z" transform="translate(-16.118 -14.162)" fill="#fdfdfd"/>
        <path id="Path_10947" data-name="Path 10947" d="M14.506,22.36A.506.506,0,0,1,14,21.854V20.506A.506.506,0,0,1,14.506,20h1.348a.506.506,0,0,1,0,1.011h-.843v.843a.506.506,0,0,1-.505.506Z" transform="translate(-14 -15.953)" fill="#fdfdfd"/>
        <path id="Path_10948" data-name="Path 10948" d="M14.7,17.034a.528.528,0,0,1-.147-.022.507.507,0,0,1-.337-.631,3.365,3.365,0,0,1,6.19-.6.509.509,0,0,1-.9.474,2.353,2.353,0,0,0-4.327.416.506.506,0,0,1-.484.363Z" transform="translate(-14.061 -14)" fill="#fdfdfd"/>
        <path id="Path_10949" data-name="Path 10949" d="M17.537,22.534a3.353,3.353,0,0,1-2.968-1.785.509.509,0,1,1,.9-.474,2.353,2.353,0,0,0,4.328-.419.505.505,0,1,1,.965.3,3.358,3.358,0,0,1-3.22,2.378Z" transform="translate(-14.166 -15.791)" fill="#fdfdfd"/>
      </g>
    </g>
  </g>
</svg>
