<svg xmlns="http://www.w3.org/2000/svg" width="14.759" height="18.512" viewBox="0 0 14.759 18.512">
  <g id="notes" transform="translate(-1.75 0.25)">
    <path id="Path_13025" data-name="Path 13025" d="M14.383,18.511H3.876A1.879,1.879,0,0,1,2,16.635V3.876A1.879,1.879,0,0,1,3.876,2H14.383a1.879,1.879,0,0,1,1.876,1.876V16.635A1.879,1.879,0,0,1,14.383,18.511ZM3.876,2.75A1.127,1.127,0,0,0,2.75,3.876V16.635A1.127,1.127,0,0,0,3.876,17.76H14.383a1.127,1.127,0,0,0,1.126-1.126V3.876A1.127,1.127,0,0,0,14.383,2.75Z" transform="translate(0 -0.499)" fill="#2a3941" stroke="#2a3941" stroke-width="0.5"/>
    <path id="Path_13026" data-name="Path 13026" d="M6.375,3.752A.375.375,0,0,1,6,3.377v-3a.375.375,0,0,1,.75,0v3A.375.375,0,0,1,6.375,3.752Z" transform="translate(-0.998)" fill="#2a3941" stroke="#2a3941" stroke-width="0.5"/>
    <path id="Path_13027" data-name="Path 13027" d="M11.875,3.752a.375.375,0,0,1-.375-.375v-3a.375.375,0,0,1,.75,0v3A.375.375,0,0,1,11.875,3.752Z" transform="translate(-2.37)" fill="#2a3941" stroke="#2a3941" stroke-width="0.5"/>
    <path id="Path_13028" data-name="Path 13028" d="M16.375,3.752A.375.375,0,0,1,16,3.377v-3a.375.375,0,0,1,.75,0v3A.375.375,0,0,1,16.375,3.752Z" transform="translate(-3.493)" fill="#2a3941" stroke="#2a3941" stroke-width="0.5"/>
    <path id="Path_13030" data-name="Path 13030" d="M12.836,13.75H6.3a.385.385,0,0,1,0-.75h6.538a.385.385,0,0,1,0,.75Z" transform="translate(-0.998 -2.244)" fill="#2a3941" stroke="#2a3941" stroke-width="0.5"/>
    <path id="Path_13031" data-name="Path 13031" d="M10.181,9.75H6.322a.38.38,0,0,1,0-.75h3.86a.38.38,0,0,1,0,.75Z" transform="translate(-0.998 -2)" fill="#2a3941" stroke="#2a3941" stroke-width="0.5"/>
  </g>
</svg>
