<svg xmlns="http://www.w3.org/2000/svg" width="18" height="17.995" viewBox="0 0 18 17.995">
  <g id="cancel_1_" data-name="cancel (1)" transform="translate(0 -0.07)">
    <g id="Group_16292" data-name="Group 16292" transform="translate(0 0.07)">
      <g id="Group_16291" data-name="Group 16291" transform="translate(0 0)">
        <path id="Path_13023" data-name="Path 13023" d="M15.368,2.7a9,9,0,1,0,0,12.731A9.014,9.014,0,0,0,15.368,2.7Zm-.986,11.745a7.608,7.608,0,1,1,0-10.759A7.617,7.617,0,0,1,14.382,14.446Z" transform="translate(0 -0.07)" fill="#ff2b0b"/>
      </g>
    </g>
    <g id="Group_16294" data-name="Group 16294" transform="translate(5.874 5.856)">
      <g id="Group_16293" data-name="Group 16293">
        <path id="Path_13024" data-name="Path 13024" d="M173.374,169.955,171.4,167.98l1.978-1.975a.7.7,0,0,0-.988-.988l-1.979,1.976-1.979-1.976a.7.7,0,0,0-.988.988l1.977,1.975-1.977,1.975a.7.7,0,0,0,.988.988l1.979-1.976,1.979,1.976a.7.7,0,1,0,.988-.988Z" transform="translate(-167.236 -164.813)" fill="#ff2b0b"/>
      </g>
    </g>
  </g>
</svg>
