<svg xmlns="http://www.w3.org/2000/svg" width="18" height="18" viewBox="0 0 18 18">
  <g id="Group_16201" data-name="Group 16201" transform="translate(0.004)">
    <g id="Ellipse_494" data-name="Ellipse 494" transform="translate(-0.004)" fill="none" stroke="#2a3941" stroke-width="1.5">
      <circle cx="9" cy="9" r="9" stroke="none"/>
      <circle cx="9" cy="9" r="8.25" fill="none"/>
    </g>
    <path id="check_2_" data-name="check (2)" d="M3.043,6.458a.406.406,0,0,1-.574,0L.178,4.167a.608.608,0,0,1,0-.861l.287-.287a.608.608,0,0,1,.861,0l1.43,1.43L6.621.585a.608.608,0,0,1,.861,0l.287.287a.608.608,0,0,1,0,.861Zm0,0" transform="translate(4.996 5.594)" fill="#2a3941"/>
  </g>
</svg>
