<svg xmlns="http://www.w3.org/2000/svg" width="16.098" height="16.098" viewBox="0 0 16.098 16.098">
  <g id="vuesax_bold_like" data-name="vuesax/bold/like" transform="translate(-300 -188)">
    <g id="like" transform="translate(300 188)">
      <path id="Vector" d="M0,10.883V4.068a1.356,1.356,0,0,1,.228-.751L2.059.594A1.449,1.449,0,0,1,3.676.077a1.461,1.461,0,0,1,.952,1.616L4.279,3.887a.673.673,0,0,0,.141.523.624.624,0,0,0,.463.208H7.64a1.5,1.5,0,0,1,1.254.59,1.413,1.413,0,0,1,.134,1.308L7.378,11.54a2.155,2.155,0,0,1-2.012,1.509H2.75a2.187,2.187,0,0,1-1.368-.443l-.859-.664A1.331,1.331,0,0,1,0,10.883Z" transform="translate(5.627 1.519)" fill="#fff"/>
      <path id="Vector-2" data-name="Vector" d="M2.153,0H1.462C.423,0,0,.4,0,1.4V8.143c0,.993.423,1.4,1.462,1.4h.691c1.04,0,1.462-.4,1.462-1.4V1.4C3.615.4,3.193,0,2.153,0Z" transform="translate(1.341 4.279)" fill="#fff"/>
      <path id="Vector-3" data-name="Vector" d="M0,0H16.1V16.1H0Z" transform="translate(16.098 16.098) rotate(180)" fill="none" opacity="0"/>
    </g>
  </g>
</svg>
