<svg xmlns="http://www.w3.org/2000/svg" width="114.886" height="73.103" viewBox="0 0 114.886 73.103">
  <g id="sent" transform="translate(0.501 -158.057)">
    <path id="Path_12922" data-name="Path 12922" d="M79.044,23.639a1.611,1.611,0,0,0,1.611-1.612V1.612c0-.019,0-.037,0-.056s0-.037,0-.056a1.6,1.6,0,0,0-.092-.435c0-.006,0-.013-.006-.019l-.007-.014a1.607,1.607,0,0,0-.1-.2L80.437.8a1.625,1.625,0,0,0-.111-.166L80.3.606A1.59,1.59,0,0,0,80.16.451L80.127.42A1.617,1.617,0,0,0,79.976.3L79.956.284A1.622,1.622,0,0,0,79.77.174L79.733.156a1.6,1.6,0,0,0-.418-.132L79.267.017A1.62,1.62,0,0,0,79.044,0H1.612a1.621,1.621,0,0,0-.223.017L1.34.024A1.591,1.591,0,0,0,.922.156L.885.174A1.59,1.59,0,0,0,.7.284L.68.3A1.591,1.591,0,0,0,.529.42L.5.451A1.618,1.618,0,0,0,.353.606L.329.638A1.625,1.625,0,0,0,.219.8L.2.826a1.6,1.6,0,0,0-.095.2S.1,1.04.1,1.045s0,.013-.006.019A1.606,1.606,0,0,0,.006,1.5c0,.019,0,.037,0,.056s0,.037,0,.057v9.459a1.612,1.612,0,0,0,3.223,0V5.163l28.464,24.9L3.223,48.249V18.161a1.612,1.612,0,0,0-3.223,0V51.074c0,.014,0,.028,0,.042A1.61,1.61,0,0,0,1.612,52.8H79.044a1.61,1.61,0,0,0,1.609-1.686c0-.014,0-.028,0-.042V29.118a1.611,1.611,0,0,0-3.223,0V48.249L48.969,30.067l28.464-24.9V22.027A1.611,1.611,0,0,0,79.044,23.639Zm-5.7,25.823H7.311l26.9-17.185.055.048a8.809,8.809,0,0,0,12.12,0l.055-.048ZM44.266,29.9a5.661,5.661,0,0,1-7.875,0l-.982-.859-.007-.006L5.9,3.223H74.755Z" transform="matrix(0.966, -0.259, 0.259, 0.966, 22.2, 179.545)" fill="#338af0" stroke="#338af0" stroke-width="1"/>
    <path id="Path_12923" data-name="Path 12923" d="M28.861,204.883H2.024a2.024,2.024,0,0,0,0,4.048H28.861a2.024,2.024,0,1,0,0-4.048Z" transform="translate(0 -33.741)" fill="#338af0" stroke="#338af0" stroke-width="1"/>
    <path id="Path_12924" data-name="Path 12924" d="M52.357,248.931H34.205a2.024,2.024,0,1,0,0,4.048H52.357a2.024,2.024,0,1,0,0-4.048Z" transform="translate(-32.182 -65.901)" fill="#338af0" stroke="#338af0" stroke-width="1"/>
    <path id="Path_12925" data-name="Path 12925" d="M76.909,287.578H67.833a2.024,2.024,0,1,0,0,4.048h9.076a2.024,2.024,0,1,0,0-4.048Z" transform="translate(-56.734 -94.117)" fill="#338af0" stroke="#338af0" stroke-width="1"/>
  </g>
</svg>
