<svg xmlns="http://www.w3.org/2000/svg" width="18" height="18" viewBox="0 0 18 18">
  <g id="vuesax_linear_eye" data-name="vuesax/linear/eye" transform="translate(-108 -188)">
    <g id="eye" transform="translate(108 188)">
      <g id="Group_16089" data-name="Group 16089" transform="translate(1.664 2.78)">
        <path id="Vector" d="M5.378,2.689a2.686,2.686,0,1,1-.787-1.9,2.689,2.689,0,0,1,.787,1.9Z" transform="translate(4.647 3.531)" fill="none" stroke="#2a3941" stroke-linecap="round" stroke-linejoin="round" stroke-width="1.5"/>
        <path id="Vector-2" data-name="Vector" d="M7.336,12.432c2.647,0,5.113-1.562,6.83-4.267a4.007,4.007,0,0,0,0-3.9C12.446,1.562,9.983,0,7.336,0S2.223,1.562.506,4.267a4.007,4.007,0,0,0,0,3.9C2.223,10.869,4.69,12.432,7.336,12.432Z" transform="translate(0 0)" fill="none" stroke="#2a3941" stroke-linecap="round" stroke-linejoin="round" stroke-width="1.5"/>
      </g>
      <path id="Vector-3" data-name="Vector" d="M0,0H18V18H0Z" transform="translate(18 18) rotate(180)" fill="none" opacity="0"/>
    </g>
  </g>
</svg>
